<svg id="chart" xmlns="http://www.w3.org/2000/svg" width="20" height="20" viewBox="0 0 20 20"><path id="Retângulo_1661" data-name="Retângulo 1661" d="M2.4,0a2.4,2.4,0,0,1,2.4,2.4v8.572a2.4,2.4,0,1,1-4.808,0V2.4A2.4,2.4,0,0,1,2.4,0Z" transform="translate(0 6.62)" fill="#fff"></path><path id="Retângulo_1662" data-name="Retângulo 1662" d="M2.4,0a2.4,2.4,0,0,1,2.4,2.4V17.6A2.4,2.4,0,0,1,0,17.6V2.4A2.4,2.4,0,0,1,2.4,0Z" transform="translate(7.604)" fill="#fff"></path><path id="Retângulo_1663" data-name="Retângulo 1663" d="M2.4,0a2.4,2.4,0,0,1,2.4,2.4V14.233a2.4,2.4,0,1,1-4.808,0V2.4A2.4,2.4,0,0,1,2.4,0Z" transform="translate(15.192 3.363)" fill="#fff"></path></svg>