<svg xmlns="http://www.w3.org/2000/svg" width="24.5" height="24.501" viewBox="0 0 24.5 24.501"><g id="price-label-svgrepo-com" transform="translate(-9.062 22.938)"><g id="Grupo_4600" data-name="Grupo 4600" transform="translate(9.062 -22.938)"><g id="Grupo_5093" data-name="Grupo 5093" transform="translate(0)"><path id="Caminho_2408" data-name="Caminho 2408" d="M21.312,9.062a12.25,12.25,0,1,0,12.25,12.25A12.264,12.264,0,0,0,21.312,9.062Zm0,22.5a10.25,10.25,0,1,1,10.25-10.25A10.262,10.262,0,0,1,21.312,31.562Z" transform="translate(-9.062 -9.062)" fill="#fff"></path><path id="Caminho_2409" data-name="Caminho 2409" d="M23.329,21.268c-1.363-.63-1.926-1.043-1.926-1.691,0-.551.337-1.1,1.38-1.1a4.1,4.1,0,0,1,1.539.294.625.625,0,0,0,.6-.076.917.917,0,0,0,.356-.6l.079-.455a.954.954,0,0,0-.479-1.048,4.838,4.838,0,0,0-1.8-.32v-.835a.758.758,0,1,0-1.485,0v.971a3.644,3.644,0,0,0-2.68,3.5c0,1.908,1.189,2.892,2.906,3.6,1.188.492,1.709.964,1.709,1.712,0,.787-.622,1.22-1.536,1.22a4.593,4.593,0,0,1-1.9-.437.617.617,0,0,0-.6.047.9.9,0,0,0-.376.584l-.1.49a.955.955,0,0,0,.488,1.086,8.092,8.092,0,0,0,2.095.513V30a.758.758,0,1,0,1.485,0V28.588c2.228-.4,2.893-1.887,2.893-3.639C25.974,23.177,25.24,22.093,23.329,21.268Z" transform="translate(-10.066 -10.468)" fill="#fff"></path></g></g></g></svg>