<svg xmlns="http://www.w3.org/2000/svg" width="23" height="23" viewBox="0 0 23 23"><path id="Caminho_8956" data-name="Caminho 8956" d="M-838.921-5527.5v-.085a1.144,1.144,0,0,0-.752-1.047l-.029-.011a1.137,1.137,0,0,0-.464-.1,1.145,1.145,0,0,0-.8.327l-.057.057a2.486,2.486,0,0,1-1.77.733,2.483,2.483,0,0,1-1.768-.733,2.5,2.5,0,0,1,0-3.537l.057-.057a1.163,1.163,0,0,0,.235-1.256,1.161,1.161,0,0,0-1.062-.713h-.166a2.5,2.5,0,0,1-2.5-2.5,2.5,2.5,0,0,1,2.5-2.5h.083a1.148,1.148,0,0,0,1.047-.753l.011-.029a1.144,1.144,0,0,0-.228-1.267l-.057-.057a2.5,2.5,0,0,1,0-3.537,2.48,2.48,0,0,1,1.768-.732,2.48,2.48,0,0,1,1.768.732l.058.057a1.141,1.141,0,0,0,.8.326,1.131,1.131,0,0,0,.464-.1l.1-.042h.072a1.151,1.151,0,0,0,.613-1.012v-.168a2.5,2.5,0,0,1,2.5-2.5,2.5,2.5,0,0,1,2.5,2.5v.089a1.161,1.161,0,0,0,.714,1.06,1.157,1.157,0,0,0,.448.09,1.161,1.161,0,0,0,.808-.326l.056-.057a2.49,2.49,0,0,1,1.77-.732,2.489,2.489,0,0,1,1.768.732,2.5,2.5,0,0,1,0,3.537l-.058.059a1.145,1.145,0,0,0-.228,1.267l.043.1v.073a1.148,1.148,0,0,0,1.012.612h.167a2.5,2.5,0,0,1,2.5,2.5,2.5,2.5,0,0,1-2.5,2.5h-.089a1.152,1.152,0,0,0-1.051.7v0a1.143,1.143,0,0,0,.228,1.267l.057.059a2.5,2.5,0,0,1,0,3.537,2.484,2.484,0,0,1-1.768.732,2.484,2.484,0,0,1-1.768-.732l-.057-.057a1.159,1.159,0,0,0-.808-.324,1.161,1.161,0,0,0-.448.089,1.166,1.166,0,0,0-.714,1.064v.166a2.5,2.5,0,0,1-2.5,2.5A2.5,2.5,0,0,1-838.921-5527.5Zm-.393-2.065a2.135,2.135,0,0,1,1.392,1.963v.1a1.5,1.5,0,0,0,1.5,1.5,1.5,1.5,0,0,0,1.5-1.5v-.17a2.162,2.162,0,0,1,1.328-1.981,2.142,2.142,0,0,1,.834-.167,2.152,2.152,0,0,1,1.505.608l.067.065a1.487,1.487,0,0,0,1.061.44,1.487,1.487,0,0,0,1.061-.44,1.5,1.5,0,0,0,0-2.123l-.064-.064a2.14,2.14,0,0,1-.43-2.369,2.149,2.149,0,0,1,1.966-1.3h.092a1.5,1.5,0,0,0,1.5-1.5,1.5,1.5,0,0,0-1.5-1.5h-.17a2.146,2.146,0,0,1-1.969-1.3l-.04-.093v-.085a2.137,2.137,0,0,1,.472-2.267l.064-.064a1.5,1.5,0,0,0,0-2.124,1.491,1.491,0,0,0-1.061-.44,1.494,1.494,0,0,0-1.062.44l-.065.066a2.153,2.153,0,0,1-1.505.609,2.138,2.138,0,0,1-.834-.168,2.158,2.158,0,0,1-1.328-1.976v-.095a1.5,1.5,0,0,0-1.5-1.5,1.5,1.5,0,0,0-1.5,1.5v.17a2.151,2.151,0,0,1-1.3,1.97l-.093.041h-.085a2.136,2.136,0,0,1-.764.139,2.137,2.137,0,0,1-1.5-.613l-.064-.064a1.491,1.491,0,0,0-1.061-.438,1.491,1.491,0,0,0-1.061.438,1.5,1.5,0,0,0,0,2.124l.063.064a2.139,2.139,0,0,1,.437,2.357,2.139,2.139,0,0,1-1.962,1.392h-.1a1.5,1.5,0,0,0-1.5,1.5,1.5,1.5,0,0,0,1.5,1.5h.17a2.159,2.159,0,0,1,1.98,1.327,2.159,2.159,0,0,1-.441,2.34l-.065.065a1.5,1.5,0,0,0,0,2.124,1.493,1.493,0,0,0,1.061.438,1.5,1.5,0,0,0,1.062-.438l.064-.064a2.136,2.136,0,0,1,1.5-.614A2.138,2.138,0,0,1-839.313-5529.564ZM-840-5536.5a3.5,3.5,0,0,1,3.5-3.5,3.5,3.5,0,0,1,3.5,3.5,3.5,3.5,0,0,1-3.5,3.5A3.5,3.5,0,0,1-840-5536.5Zm1,0a2.5,2.5,0,0,0,2.5,2.5,2.5,2.5,0,0,0,2.5-2.5,2.5,2.5,0,0,0-2.5-2.5A2.5,2.5,0,0,0-839-5536.5Z" transform="translate(848 5548)" fill="#fff"></path></svg>