<svg xmlns="http://www.w3.org/2000/svg" width="20" height="20" viewBox="0 0 20 20"><g id="Grupo_3892" data-name="Grupo 3892" transform="translate(-245 -315)"><g id="Grupo_2140" data-name="Grupo 2140" transform="translate(245 315)"><path id="Caminho_485" data-name="Caminho 485" d="M267.034,4.977A5.016,5.016,0,0,1,271.205,9.2a.416.416,0,0,0,.412.358H275.8a.416.416,0,0,0,.415-.452,9.956,9.956,0,0,0-9.08-9.079.416.416,0,0,0-.452.415V4.565A.416.416,0,0,0,267.034,4.977Z" transform="translate(-256.215 -0.028)" fill="#fff"></path><path id="Caminho_486" data-name="Caminho 486" d="M103.774,265.62h-4.2a.416.416,0,0,0-.411.347,4.984,4.984,0,0,1-7.824,3.223.416.416,0,0,0-.537.044l-3.007,3.007a.416.416,0,0,0,.026.613,9.983,9.983,0,0,0,16.37-6.782.416.416,0,0,0-.415-.452Z" transform="translate(-84.191 -255.195)" fill="#fff"></path><path id="Caminho_487" data-name="Caminho 487" d="M90.717,5.837a.417.417,0,0,0,.544.039,4.98,4.98,0,0,1,2.212-.929.416.416,0,0,0,.353-.411V.417A.416.416,0,0,0,93.69.11.4.4,0,0,0,93.373,0a9.916,9.916,0,0,0-5.554,2.3.416.416,0,0,0-.026.613Z" transform="translate(-84.235 0)" fill="#fff"></path><path id="Caminho_488" data-name="Caminho 488" d="M6,96.126a5.007,5.007,0,0,1-.057-5.912.419.419,0,0,0-.044-.539L2.968,86.728a.426.426,0,0,0-.312-.122.416.416,0,0,0-.3.149,10.056,10.056,0,0,0,0,12.9.416.416,0,0,0,.3.149h.018a.414.414,0,0,0,.294-.122l3-3.01A.419.419,0,0,0,6,96.126Z" transform="translate(-0.014 -83.225)" fill="#fff"></path></g></g></svg>