<svg xmlns="http://www.w3.org/2000/svg" width="26" height="26" viewBox="0 0 26 26"><path id="Forma_composta" data-name="Forma composta" d="M159.556,228.452a1.85,1.85,0,0,1-.394,2.262,3.169,3.169,0,0,1-1.724.674v1.393h-.783v-1.338a7.881,7.881,0,0,1-1.314-.107,4.1,4.1,0,0,1-1.041-.3v-.952a5.88,5.88,0,0,0,1.159.367,5.636,5.636,0,0,0,1.2.143v-2.672a4.2,4.2,0,0,1-1.74-.91,1.845,1.845,0,0,1-.5-1.338,1.6,1.6,0,0,1,.614-1.295,3,3,0,0,1,1.625-.615v-1.126h.783v1.114a5.919,5.919,0,0,1,2.147.47l-.315.813a6.145,6.145,0,0,0-1.832-.426V227.2a6.94,6.94,0,0,1,1.421.59A2,2,0,0,1,159.556,228.452Zm3.015-5.095a1.819,1.819,0,0,0-1.857-1.857h-7.428a1.819,1.819,0,0,0-1.857,1.857v6.5a1.819,1.819,0,0,0,1.857,1.857V241h7.428v-9.286a1.819,1.819,0,0,0,1.857-1.857Zm-5.132,7.18q1.309-.182,1.31-1.118a.961.961,0,0,0-.269-.707,2.865,2.865,0,0,0-1.042-.538Zm-1.69-5.527a.884.884,0,0,0-.308.687.982.982,0,0,0,.272.726,2.612,2.612,0,0,0,.943.517v-2.3A1.743,1.743,0,0,0,155.749,225.011Zm12.394,6.7A1.819,1.819,0,0,0,170,229.857v-6.5a1.819,1.819,0,0,0-1.857-1.857h-3.936a2.7,2.7,0,0,1,.221.929v9.286a1.819,1.819,0,0,1-1.857,1.857V241h5.571Zm-3.714-11.143a2.8,2.8,0,1,0-1.5-.447l.18.1A2.754,2.754,0,0,0,164.429,220.571Zm-7.429,0a2.786,2.786,0,1,0-2.786-2.786A2.786,2.786,0,0,0,157,220.571Zm-5.929-.445a3.254,3.254,0,1,0-.175.1Zm-1.5,2.3a2.7,2.7,0,0,1,.222-.929h-3.936A1.819,1.819,0,0,0,144,223.357v6.5a1.819,1.819,0,0,0,1.857,1.857V241h5.571v-7.429a1.819,1.819,0,0,1-1.857-1.857Z" transform="translate(-144 -215)" fill="#fff"></path></svg>