<svg xmlns="http://www.w3.org/2000/svg" xmlns:xlink="http://www.w3.org/1999/xlink" width="31.945" height="21.908" viewBox="0 0 31.945 21.908"><defs><clipPath id="a"><path d="M20881,15144v9.953h.23l1.582-9.953Z" transform="translate(-20881 -15144)" clip-rule="evenodd"/></clipPath><linearGradient id="b" x1="0.5" y1="1" x2="0.5" gradientUnits="objectBoundingBox"><stop offset="0" stop-color="#dcdddf"/><stop offset="0.012" stop-color="#dcdddf"/><stop offset="0.2" stop-color="#e6e7e8"/><stop offset="1" stop-color="#f1f1f2"/></linearGradient><clipPath id="c"><path d="M26876,14994v8.94h6.273l-4.555-8.94Z" transform="translate(-26876 -14994)" clip-rule="evenodd"/></clipPath><linearGradient id="d" x1="0.5" y1="0.91" x2="0.5" y2="0.09" xlink:href="#b"/><clipPath id="e"><path d="M23023,11321l5.213,10.232h9.8l.113-.113v-9.509l-3.518,3.515h0l-2.1-4.125Z" transform="translate(-23023 -11321)" clip-rule="evenodd"/></clipPath><clipPath id="f"><path d="M24338,13900l1.2,2.361h9.51l.934-.936V13900Z" transform="translate(-24338 -13900)" clip-rule="evenodd"/></clipPath><linearGradient id="g" x1="0.5" y1="0.11" x2="0.5" y2="0.89" gradientUnits="objectBoundingBox"><stop offset="0" stop-color="#faa831"/><stop offset="0.012" stop-color="#faa831"/><stop offset="0.988" stop-color="#f58634"/><stop offset="1" stop-color="#f58634"/></linearGradient><linearGradient id="h" x1="0.5" y1="0.17" x2="0.5" y2="0.83" gradientUnits="objectBoundingBox"><stop offset="0" stop-color="#faa831"/><stop offset="0.012" stop-color="#faa831"/><stop offset="1" stop-color="#f58634"/></linearGradient><linearGradient id="i" y1="0.5" x2="1" y2="0.5" gradientUnits="objectBoundingBox"><stop offset="0" stop-color="#cecfd1"/><stop offset="0.651" stop-color="#d6d7d9"/><stop offset="0.988" stop-color="#dcdddf"/><stop offset="1" stop-color="#dcdddf"/></linearGradient><clipPath id="j"><path d="M21058.953,15144l-9.953,9.953h9.516l4.121-4.121,2.1,4.121h3.24V15144Z" transform="translate(-21049 -15144)" clip-rule="evenodd"/></clipPath><clipPath id="k"><path d="M23835.732,14626l.049.091h9.1V14626Zm-1.014,1.148-1.719,1.723v.538h11.883v-.985l-.65-1.275Z" transform="translate(-23833 -14626)" clip-rule="evenodd"/></clipPath></defs><g transform="translate(-6309.195 -577.366)"><g transform="translate(6309.196 589.32)" clip-path="url(#a)"><rect width="19.509" height="11.063" transform="translate(0 -0.003)" fill="none"/></g><g transform="translate(6309.721 577.366)"><path d="M25416.3,14993l-6.3,6.3,2.1,4.124h9.508Z" transform="translate(-25396.363 -14981.518)" fill-rule="evenodd" fill="url(#b)"/><g transform="translate(18.221 11.485)" clip-path="url(#c)"><rect width="6.686" height="9.844" transform="translate(0 -0.901)" fill="none"/></g><path d="M23028.313,11331.426h9.51l-3.209-6.3h0l-2.1-4.125H23023Z" transform="translate(-23016.826 -11321)" fill-rule="evenodd" fill="url(#d)"/><g transform="translate(6.173)" clip-path="url(#e)"><rect width="15.854" height="11.329" transform="translate(-0.722 -1.098)" fill="none"/></g><g transform="translate(10.285 8.065)" clip-path="url(#f)"><rect width="11.876" height="3.412" transform="translate(-0.225)" fill="none"/></g><path d="M21050,15003.426h9.508l4.125-4.124h0l6.3-6.3h-9.512Z" transform="translate(-21049.996 -14981.518)" fill-rule="evenodd" fill="url(#g)"/><path d="M26741.121,11321l-4.123,4.125,3.209,6.3,10.424-10.426Z" transform="translate(-26719.211 -11321)" fill-rule="evenodd" fill="url(#h)"/><path d="M25416.3,14993l-6.3,6.3.709,1.394Z" transform="translate(-25396.363 -14981.518)" fill-rule="evenodd" fill="url(#i)"/><g transform="translate(0 11.955)" clip-path="url(#j)"><rect width="19.509" height="11.063" transform="translate(-0.525 -0.003)" fill="none"/></g><g transform="translate(8.706 10.335)" clip-path="url(#k)"><rect width="11.886" height="3.412" fill="none"/></g></g></g></svg>