<svg xmlns="http://www.w3.org/2000/svg" width="20" height="20" viewBox="0 0 20 20"><g id="indices-etf" transform="translate(-104 -574)"><rect id="Retângulo_2192" data-name="Retângulo 2192" width="20" height="20" transform="translate(104 574)" fill="#6a6e82" opacity="0"></rect><g id="arrows-svgrepo-com" transform="translate(73.053 587.213) rotate(-90)"><path id="Caminho_2352" data-name="Caminho 2352" d="M117.562,24.769,114.12,22.1a.734.734,0,0,0-1.183.58V23.4h-8.424a.734.734,0,0,0-.734.734V26.56a.734.734,0,0,0,.734.734h8.424v.724a.734.734,0,0,0,1.183.58l3.442-2.669a.734.734,0,0,0,0-1.16Z" transform="translate(-109.744 15.598)" fill="#fff"></path><path id="Caminho_4674" data-name="Caminho 4674" d="M116.731,24.769,113.289,22.1a.734.734,0,0,0-1.183.58V23.4H99.513a.734.734,0,0,0-.734.734V26.56a.734.734,0,0,0,.734.734h12.593v.724a.734.734,0,0,0,1.183.58l3.442-2.669a.734.734,0,0,0,0-1.16Z" transform="translate(-104.802 22.196)" fill="#fff"></path><path id="Caminho_2353" data-name="Caminho 2353" d="M10.107,1.458h-5.2V.734A.734.734,0,0,0,3.726.154L.284,2.823a.733.733,0,0,0,0,1.159L3.726,6.651a.733.733,0,0,0,1.183-.58V5.347h5.2a.734.734,0,0,0,.734-.734V2.191A.734.734,0,0,0,10.107,1.458Z" transform="translate(4.835 37.752) rotate(180)" fill="#fff"></path></g></g></svg>