<svg xmlns="http://www.w3.org/2000/svg" xmlns:xlink="http://www.w3.org/1999/xlink" width="100" height="22.608" viewBox="0 0 100 22.608"><defs><linearGradient id="a" x1="0.5" y1="1" x2="0.5" gradientUnits="objectBoundingBox"><stop offset="0" stop-color="#dcdddf"/><stop offset="0.012" stop-color="#dcdddf"/><stop offset="0.2" stop-color="#e6e7e8"/><stop offset="1" stop-color="#f1f1f2"/></linearGradient><clipPath id="c"><path d="M9929.491,14472c.01.041.01.082.017.122h0l.384,4.015h-3.468l1.52-4.137h-6.951l-6.094,12.055h8.411l1.075-2.732h6.011l.306,2.732h8.428l-2.395-12.055Zm-15.491,4.369v6.694l1.448-7.735a11.2,11.2,0,0,1-1.448,1.041Z" transform="translate(-9914 -14472)" clip-rule="evenodd"/></clipPath><clipPath id="d"><path d="M11705.385,11322l-6.385,12.643h7.336l2.23-6.057h.324c-.02,1.014-.06,2.439.031,3.383h0l.26,2.674h7.523l-2.518-12.643Z" transform="translate(-11699 -11321.998)" clip-rule="evenodd"/></clipPath><clipPath id="e"><path d="M18884,11322l-2,12.643h7.955l2-12.643Z" transform="translate(-18882 -11321.998)" clip-rule="evenodd"/></clipPath><clipPath id="f"><path d="M18412.914,14472l-1.914,12.055h7.955l1.914-12.055Zm6.336,12.059h2.492v-2.492Z" transform="translate(-18411 -14472)" clip-rule="evenodd"/></clipPath><clipPath id="h"><path d="M28948.492,14471a.643.643,0,0,0,.016.122h0l.383,4.015h-3.467l1.521-4.137h-6.955l-6.092,12.055h8.41l1.076-2.732h6.01l.3,2.732h8.426l-2.391-12.055Zm-15.492,12.058h.6l-.6-1.173Z" transform="translate(-28933 -14471)" clip-rule="evenodd"/></clipPath><clipPath id="i"><path d="M30620,11321v1.492l1.492-1.492Zm6.693,0-6.391,12.643h7.338l2.229-6.058h.326c-.016,1.013-.061,2.438.029,3.384h0l.264,2.674h7.523l-2.518-12.643Z" transform="translate(-30620 -11321)" clip-rule="evenodd"/></clipPath><linearGradient id="j" y2="0" xlink:href="#a"/><clipPath id="k"><path d="M4989.141,11215.517a11.213,11.213,0,0,0-.141,1.489h8.286a3.955,3.955,0,0,1-.1-1.705h0a5.232,5.232,0,0,1,5.009-4.268h0a5.948,5.948,0,0,1,4.321,2.2h0l1.091-8.343a15.817,15.817,0,0,0-5.2-.895h0a13.84,13.84,0,0,0-13.262,11.517Z" transform="translate(-4989 -11204)" clip-rule="evenodd"/></clipPath><clipPath id="l"><path d="M4988.9,14444a12.117,12.117,0,0,0-.3,1.385h0c-.984,6.242,3.127,11.092,9.365,11.092h0a19.31,19.31,0,0,0,5.81-.863h0l1.295-6.939v-1.068a7.272,7.272,0,0,1-4.647,1.832h0a3.641,3.641,0,0,1-3.777-4.265h0A4.851,4.851,0,0,1,4997,14444h-8.1Zm15.851,12.141h.316v-.627Z" transform="translate(-4988.449 -14444)" clip-rule="evenodd"/></clipPath><clipPath id="m"><path d="M7096,12720v7.074h1.555a3.989,3.989,0,0,1,.047-.51h0a5.23,5.23,0,0,1,5.012-4.27h0a5.937,5.937,0,0,1,4.319,2.205h0l.587-4.5Z" transform="translate(-7096 -12720)" clip-rule="evenodd"/></clipPath><clipPath id="n"><path d="M6998,14678v6.977h9.763l.807-4.294a7.461,7.461,0,0,1-4.884,2.022h0a3.636,3.636,0,0,1-3.774-4.264h0a3.947,3.947,0,0,1,.09-.441h-2Z" transform="translate(-6998 -14678)" clip-rule="evenodd"/></clipPath><clipPath id="o"><path d="M13025.031,12720l-.031.065v11.874h8.568V12720Zm5.388,2.214h.325a33.791,33.791,0,0,0,.035,3.384h0l.391,4.018h-3.478Z" transform="translate(-13025 -12720)" clip-rule="evenodd"/></clipPath><clipPath id="p"><path d="M13102.835,15443l.106,1.1h-3.474l.406-1.1H13097v3.431h8.108V15443Z" transform="translate(-13097 -15442.998)" clip-rule="evenodd"/></clipPath><clipPath id="q"><path d="M32041.039,12720l-.039.082v11.857h8.566V12720Zm5.387,2.214h.324c-.016,1.013-.059,2.439.035,3.384h0l.387,4.018h-3.473Z" transform="translate(-32041 -12720)" clip-rule="evenodd"/></clipPath><clipPath id="r"><path d="M32118.844,15443l.105,1.1h-3.473l.4-1.1H32113v3.431h8.109V15443Z" transform="translate(-32113 -15442.998)" clip-rule="evenodd"/></clipPath><clipPath id="s"><path d="M20881,15144v9.953h.23l1.582-9.953Z" transform="translate(-20881 -15144)" clip-rule="evenodd"/></clipPath><linearGradient id="t" y2="0" xlink:href="#a"/><clipPath id="u"><path d="M26876,14994v8.94h6.273l-4.555-8.94Z" transform="translate(-26876 -14994)" clip-rule="evenodd"/></clipPath><linearGradient id="v" y1="0.91" y2="0.09" xlink:href="#a"/><clipPath id="w"><path d="M23023,11321l5.213,10.232h9.8l.113-.113v-9.509l-3.518,3.515h0l-2.1-4.125Z" transform="translate(-23023 -11321)" clip-rule="evenodd"/></clipPath><clipPath id="x"><path d="M24338,13900l1.2,2.361h9.51l.934-.936V13900Z" transform="translate(-24338 -13900)" clip-rule="evenodd"/></clipPath><linearGradient id="y" x1="0.5" y1="0.11" x2="0.5" y2="0.89" gradientUnits="objectBoundingBox"><stop offset="0" stop-color="#faa831"/><stop offset="0.012" stop-color="#faa831"/><stop offset="0.988" stop-color="#f58634"/><stop offset="1" stop-color="#f58634"/></linearGradient><linearGradient id="z" x1="0.5" y1="0.17" x2="0.5" y2="0.83" gradientUnits="objectBoundingBox"><stop offset="0" stop-color="#faa831"/><stop offset="0.012" stop-color="#faa831"/><stop offset="1" stop-color="#f58634"/></linearGradient><linearGradient id="aa" y1="0.5" x2="1" y2="0.5" gradientUnits="objectBoundingBox"><stop offset="0" stop-color="#cecfd1"/><stop offset="0.651" stop-color="#d6d7d9"/><stop offset="0.988" stop-color="#dcdddf"/><stop offset="1" stop-color="#dcdddf"/></linearGradient><clipPath id="ab"><path d="M21058.953,15144l-9.953,9.953h9.516l4.121-4.121,2.1,4.121h3.24V15144Z" transform="translate(-21049 -15144)" clip-rule="evenodd"/></clipPath><clipPath id="ac"><path d="M23835.732,14626l.049.091h9.1V14626Zm-1.014,1.148-1.719,1.723v.538h11.883v-.985l-.65-1.275Z" transform="translate(-23833 -14626)" clip-rule="evenodd"/></clipPath></defs><g transform="translate(-6259.5 -577)"><path d="M18422.434,11322h-7.959L18411,11343.9h7.955Z" transform="translate(-12109.527 -10744.629)" fill-rule="evenodd" fill="url(#a)"/><path d="M10219.879,11322h-8.8L10200,11343.9h8.412l1.075-2.733h6.017l.3,2.733h8.431Zm-5.3,6.586c-.016.991-.057,2.371.027,3.318h0a.363.363,0,0,0,.008.064h0l.387,4.02h-3.475l2.728-7.4Z" transform="translate(-3924.204 -10744.629)" fill-rule="evenodd" fill="url(#a)"/><g transform="translate(6274.902 587.219)" clip-path="url(#c)"><rect width="26.157" height="13.165" transform="translate(0 -0.006)" fill="none"/></g><g transform="translate(6280.484 577.369)" clip-path="url(#d)"><rect width="18.815" height="13.743" transform="translate(-0.306 -1.101)" fill="none"/></g><g transform="translate(6302.945 577.369)" clip-path="url(#e)"><rect width="11.867" height="13.743" transform="translate(-0.866 -1.101)" fill="none"/></g><g transform="translate(6301.472 587.219)" clip-path="url(#f)"><rect width="11.779" height="13.165" transform="translate(-1.035 -0.006)" fill="none"/></g><path d="M29238.875,11322h-8.8L29219,11343.9h8.41l1.078-2.733h6.012l.3,2.733h8.43Zm-5.3,6.586c-.01.525-.025,1.164-.025,1.789h0c0,.547.012,1.084.053,1.529h0c0,.021,0,.043.006.064h0l.391,4.02h-3.477l2.727-7.4Z" transform="translate(-22883.73 -10744.629)" fill-rule="evenodd" fill="url(#a)"/><g transform="translate(6334.375 587.216)" clip-path="url(#h)"><rect width="26.157" height="13.165" transform="translate(0 -0.003)" fill="none"/></g><g transform="translate(6339.65 577.366)" clip-path="url(#i)"><rect width="18.815" height="13.743" transform="translate(0 -1.098)" fill="none"/></g><path d="M4989.147,11215.517a11.446,11.446,0,0,0-.147,1.82h0c0,5.341,3.893,9.271,9.512,9.271h0a19.334,19.334,0,0,0,5.8-.861h0l1.535-8.2a7.451,7.451,0,0,1-4.885,2.025h0a3.64,3.64,0,0,1-3.827-3.629h0a4.43,4.43,0,0,1,.05-.635h0a5.23,5.23,0,0,1,5.01-4.27h0a4.8,4.8,0,0,1,1.832.369h0a7.081,7.081,0,0,1,2.489,1.836h0l1.092-8.343a15.805,15.805,0,0,0-5.2-.9h0a13.841,13.841,0,0,0-13.265,11.517Z" transform="translate(1270.502 -10627)" fill-rule="evenodd" fill="url(#j)"/><g transform="translate(6259.502 577)" clip-path="url(#k)"><rect width="20.701" height="14.115" transform="translate(-0.957 -1.11)" fill="none"/></g><g transform="translate(6259.5 587.131)" clip-path="url(#l)"><rect width="17.73" height="13.587" transform="translate(-1.108 -0.006)" fill="none"/></g><g transform="translate(6266.09 581.741)" clip-path="url(#m)"><rect width="12.267" height="7.076" transform="translate(0 -0.003)" fill="none"/></g><g transform="translate(6265.784 587.863)" clip-path="url(#n)"><rect width="11.31" height="6.979" transform="translate(0 -0.003)" fill="none"/></g><g transform="translate(6284.63 581.741)" clip-path="url(#o)"><rect width="8.571" height="11.945" transform="translate(0 -0.003)" fill="none"/></g><g transform="translate(6284.855 590.255)" clip-path="url(#p)"><rect width="8.111" height="3.43" fill="none"/></g><g transform="translate(6344.093 581.741)" clip-path="url(#q)"><rect width="8.571" height="11.945" transform="translate(0 -0.003)" fill="none"/></g><g transform="translate(6344.318 590.255)" clip-path="url(#r)"><rect width="8.111" height="3.43" fill="none"/></g><g transform="translate(6309.196 589.32)" clip-path="url(#s)"><rect width="19.509" height="11.063" transform="translate(0 -0.003)" fill="none"/></g><g transform="translate(6309.721 577.366)"><path d="M25416.3,14993l-6.3,6.3,2.1,4.124h9.508Z" transform="translate(-25396.363 -14981.518)" fill-rule="evenodd" fill="url(#t)"/><g transform="translate(18.221 11.485)" clip-path="url(#u)"><rect width="6.686" height="9.844" transform="translate(0 -0.901)" fill="none"/></g><path d="M23028.313,11331.426h9.51l-3.209-6.3h0l-2.1-4.125H23023Z" transform="translate(-23016.826 -11321)" fill-rule="evenodd" fill="url(#v)"/><g transform="translate(6.173)" clip-path="url(#w)"><rect width="15.854" height="11.329" transform="translate(-0.722 -1.098)" fill="none"/></g><g transform="translate(10.285 8.065)" clip-path="url(#x)"><rect width="11.876" height="3.412" transform="translate(-0.225)" fill="none"/></g><path d="M21050,15003.426h9.508l4.125-4.124h0l6.3-6.3h-9.512Z" transform="translate(-21049.996 -14981.518)" fill-rule="evenodd" fill="url(#y)"/><path d="M26741.121,11321l-4.123,4.125,3.209,6.3,10.424-10.426Z" transform="translate(-26719.211 -11321)" fill-rule="evenodd" fill="url(#z)"/><path d="M25416.3,14993l-6.3,6.3.709,1.394Z" transform="translate(-25396.363 -14981.518)" fill-rule="evenodd" fill="url(#aa)"/><g transform="translate(0 11.955)" clip-path="url(#ab)"><rect width="19.509" height="11.063" transform="translate(-0.525 -0.003)" fill="none"/></g><g transform="translate(8.706 10.335)" clip-path="url(#ac)"><rect width="11.886" height="3.412" fill="none"/></g></g></g></svg>