<svg xmlns="http://www.w3.org/2000/svg" width="27" height="27" viewBox="0 0 27 27">
  <path id="orders" d="M362.954,90.4a1.128,1.128,0,1,1,1.149-1.126A1.138,1.138,0,0,1,362.954,90.4Zm.584-5.452a1.149,1.149,0,1,1,1.149,1.126A1.138,1.138,0,0,1,363.538,84.949Zm7.093,8.17a.989.989,0,0,1-.324-.053l-4.474-1.6a1.048,1.048,0,0,1-.663-1.318,1.029,1.029,0,0,1,1.308-.667l4.475,1.6a1.048,1.048,0,0,1,.661,1.32A1.037,1.037,0,0,1,370.631,93.118Zm-4.319-11.233a1.128,1.128,0,1,1,1.149-1.128A1.138,1.138,0,0,1,366.312,81.885Zm2.356-.3a1.037,1.037,0,0,1,1.272-.732l4.489,1.4a1.047,1.047,0,0,1-.271,2.055,1.037,1.037,0,0,1-.275-.038l-4.489-1.4A1.048,1.048,0,0,1,368.668,81.582Zm3.644,7.177a1.017,1.017,0,0,1-.322-.053l-4.465-1.611a1.049,1.049,0,0,1-.654-1.324,1.035,1.035,0,0,1,1.312-.659l4.464,1.61a1.046,1.046,0,0,1-.333,2.037Zm8.639-9.677c-.025.08-2.574,7.588-5.085,14.289-1.738,4.637-3.126,7.531-7.074,7.625a6.636,6.636,0,0,1-2.812-.582l-8.626-3.954s-4.078-1.289-3.241-6.647L365.9,94.617s-.066,4.748,3.623,4.226a.011.011,0,0,0,0,.007c1.805-.308,2.755-1.816,4.405-6.221,1.893-5.048,3.868-10.47,4.7-13.067l-13.289-3.424-5.525,14.217-1.946-.716,5.83-14.952a1.034,1.034,0,0,1,1.176-.669l15.294,3.723a1.046,1.046,0,0,1,.785,1.339Z" transform="translate(-354 -74)" fill="#fff"/>
</svg>
