<svg xmlns="http://www.w3.org/2000/svg" width="30" height="30" viewBox="0 0 30 30"><path d="M405,391a15,15,0,1,0,15,15A15.017,15.017,0,0,0,405,391Zm8.649,23.266v-.592c0-2.045-2.364-2.792-3.628-3.333-.458-.2-1.321-.61-2.208-1.043a1.209,1.209,0,0,1-.6-.868l-.1-.97a4.165,4.165,0,0,0,1.392-2.49h.153a.515.515,0,0,0,.5-.4l.24-1.482a.491.491,0,0,0-.508-.509c.005-.031.011-.063.015-.09a5.093,5.093,0,0,0,.061-.518c.016-.135.028-.274.033-.419a3.355,3.355,0,0,0-.289-1.654,3.92,3.92,0,0,0-.923-1.343c-1.172-1.109-2.531-1.541-3.689-.65a2.681,2.681,0,0,0-2.4,1.017,3.153,3.153,0,0,0-.7,1.416,4.488,4.488,0,0,0-.161,1.07,4.339,4.339,0,0,0,.109,1.176.5.5,0,0,0-.462.5l.239,1.482a.515.515,0,0,0,.5.4h.137a4.974,4.974,0,0,0,1.4,2.536l-.094.937a1.214,1.214,0,0,1-.6.869c-.857.419-1.7.821-2.206,1.029-1.19.49-3.629,1.287-3.629,3.333v.463a11.978,11.978,0,1,1,17.415.128Z" transform="translate(-390 -391)" fill="#fff"/></svg>