<svg xmlns="http://www.w3.org/2000/svg" width="19.479" height="22.127" viewBox="0 0 19.479 22.127"><path id="Forma_1" data-name="Forma 1" d="M236.882,60.127h-2.769a.472.472,0,0,1-.474-.469V44.78a.472.472,0,0,1,.474-.469h2.769a.472.472,0,0,1,.474.469V59.657A.472.472,0,0,1,236.882,60.127Zm-5.26-11.668a.472.472,0,0,1,.474.469V59.657a.472.472,0,0,1-.474.469h-2.769a.472.472,0,0,1-.474-.469V48.928a.472.472,0,0,1,.474-.469Zm-13.27,5.834h2.768a.472.472,0,0,1,.475.469v4.9a.472.472,0,0,1-.475.469h-2.768a.472.472,0,0,1-.474-.469v-4.9A.472.472,0,0,1,218.352,54.293Zm7.992-2.074a.472.472,0,0,1,.475.469v6.969a.472.472,0,0,1-.475.469h-2.769a.472.472,0,0,1-.474-.469V52.689a.472.472,0,0,1,.474-.469Zm7.678-9.256a.142.142,0,0,1-.253-.075l-.883-1.218L223.146,50a19.525,19.525,0,0,1-2.92,2.608c-.1,0-1.825-1-1.825-1L232.194,40.28l-1.488-1.3a.14.14,0,0,1,.094-.244l6-.733a.156.156,0,0,1,.141.087.153.153,0,0,1-.016.164Z" transform="translate(-217.877 -38)" fill="#fff"></path></svg>